<svg xmlns="http://www.w3.org/2000/svg" version="1.1" xmlns:xlink="http://www.w3.org/1999/xlink" xmlns:svgjs="http://svgjs.dev/svgjs" viewBox="0 0 8.63727882561375 2.2697928702924894"><g transform="matrix(1,0,0,1,0.35235190367182323,0.44144096662066656)"><g><path d=" M 0.18 0.9967499999999998 Q 0.0615 0.9089999999999998 0.0525 0.7454999999999998 L 0.366 0.7454999999999998 Q 0.3705 0.8009999999999998 0.399 0.8264999999999998 Q 0.4275 0.8519999999999999 0.47250000000000003 0.8519999999999999 Q 0.513 0.8519999999999999 0.53925 0.8317499999999999 Q 0.5655 0.8114999999999999 0.5655 0.7754999999999999 Q 0.5655 0.7289999999999999 0.522 0.7034999999999998 Q 0.47850000000000004 0.6779999999999998 0.381 0.6464999999999999 Q 0.2775 0.6119999999999999 0.21375 0.5797499999999998 Q 0.15 0.5474999999999999 0.10275000000000001 0.48524999999999985 Q 0.0555 0.4229999999999998 0.0555 0.3224999999999998 Q 0.0555 0.2204999999999998 0.1065 0.14774999999999983 Q 0.1575 0.07499999999999984 0.2475 0.03749999999999987 Q 0.3375 -2.220446049250313e-16 0.4515 -2.220446049250313e-16 Q 0.636 -2.220446049250313e-16 0.74625 0.08624999999999983 Q 0.8565 0.17249999999999988 0.864 0.3284999999999998 L 0.5445 0.3284999999999998 Q 0.543 0.28049999999999986 0.51525 0.25649999999999984 Q 0.4875 0.23249999999999982 0.444 0.23249999999999982 Q 0.41100000000000003 0.23249999999999982 0.39 0.2519999999999998 Q 0.369 0.27149999999999985 0.369 0.3074999999999998 Q 0.369 0.3374999999999998 0.39225 0.35924999999999985 Q 0.41550000000000004 0.3809999999999998 0.45 0.3967499999999998 Q 0.4845 0.41249999999999987 0.552 0.4364999999999998 Q 0.6525 0.47099999999999986 0.71775 0.5047499999999998 Q 0.783 0.5384999999999999 0.83025 0.5992499999999998 Q 0.8775000000000001 0.6599999999999998 0.8775000000000001 0.7529999999999999 Q 0.8775000000000001 0.8474999999999998 0.83025 0.9224999999999999 Q 0.783 0.9974999999999998 0.69375 1.041 Q 0.6045 1.0844999999999998 0.483 1.0844999999999998 Q 0.2985 1.0844999999999998 0.18 0.9967499999999998 M 1.8119926757812501 0.7124999999999999 L 1.25549267578125 0.7124999999999999 Q 1.25999267578125 0.7814999999999999 1.29374267578125 0.8152499999999998 Q 1.32749267578125 0.8489999999999999 1.37999267578125 0.8489999999999999 Q 1.4534926757812499 0.8489999999999999 1.48499267578125 0.7829999999999999 L 1.79849267578125 0.7829999999999999 Q 1.77899267578125 0.8699999999999999 1.7227426757812498 0.9382499999999998 Q 1.66649267578125 1.0065 1.5809926757812498 1.0454999999999999 Q 1.4954926757812501 1.0844999999999998 1.39199267578125 1.0844999999999998 Q 1.26749267578125 1.0844999999999998 1.17074267578125 1.0319999999999998 Q 1.07399267578125 0.9794999999999998 1.0192426757812498 0.8819999999999999 Q 0.96449267578125 0.7844999999999999 0.96449267578125 0.6524999999999999 Q 0.96449267578125 0.5204999999999999 1.01849267578125 0.42374999999999985 Q 1.07249267578125 0.32699999999999985 1.16924267578125 0.27449999999999986 Q 1.2659926757812499 0.22199999999999986 1.39199267578125 0.22199999999999986 Q 1.51649267578125 0.22199999999999986 1.61249267578125 0.2729999999999998 Q 1.70849267578125 0.32399999999999984 1.76249267578125 0.4192499999999998 Q 1.8164926757812498 0.5144999999999998 1.8164926757812498 0.6434999999999998 Q 1.8164926757812498 0.6779999999999998 1.8119926757812501 0.7124999999999999 M 1.51649267578125 0.5699999999999998 Q 1.51649267578125 0.5159999999999998 1.48049267578125 0.48524999999999985 Q 1.44449267578125 0.4544999999999998 1.39049267578125 0.4544999999999998 Q 1.3364926757812499 0.4544999999999998 1.3019926757812499 0.4837499999999998 Q 1.26749267578125 0.5129999999999998 1.25699267578125 0.5699999999999998 L 1.51649267578125 0.5699999999999998 M 2.4315344238281247 0.8234999999999999 L 2.4315344238281247 1.0739999999999998 L 2.3040344238281247 1.0739999999999998 Q 1.981534423828125 1.0739999999999998 1.981534423828125 0.7544999999999998 L 1.981534423828125 0.47699999999999987 L 1.8780344238281248 0.47699999999999987 L 1.8780344238281248 0.23249999999999982 L 1.981534423828125 0.23249999999999982 L 1.981534423828125 0.028499999999999748 L 2.277034423828125 0.028499999999999748 L 2.277034423828125 0.23249999999999982 L 2.4300344238281246 0.23249999999999982 L 2.4300344238281246 0.47699999999999987 L 2.277034423828125 0.47699999999999987 L 2.277034423828125 0.7589999999999999 Q 2.277034423828125 0.7934999999999999 2.2927844238281248 0.8084999999999998 Q 2.308534423828125 0.8234999999999999 2.346034423828125 0.8234999999999999 L 2.4315344238281247 0.8234999999999999 M 3.426065185546875 0.23249999999999982 L 3.426065185546875 1.0739999999999998 L 3.1305651855468746 1.0739999999999998 L 3.1305651855468746 0.9539999999999998 Q 3.093065185546875 1.011 3.027065185546875 1.04625 Q 2.961065185546875 1.0815 2.8755651855468747 1.0815 Q 2.728565185546875 1.0815 2.643815185546875 0.9847499999999998 Q 2.5590651855468747 0.8879999999999999 2.5590651855468747 0.7214999999999998 L 2.5590651855468747 0.23249999999999982 L 2.8515651855468747 0.23249999999999982 L 2.8515651855468747 0.6839999999999998 Q 2.8515651855468747 0.7559999999999998 2.8898151855468748 0.7972499999999998 Q 2.928065185546875 0.8384999999999998 2.9910651855468746 0.8384999999999998 Q 3.055565185546875 0.8384999999999998 3.093065185546875 0.7972499999999998 Q 3.1305651855468746 0.7559999999999998 3.1305651855468746 0.6839999999999998 L 3.1305651855468746 0.23249999999999982 L 3.426065185546875 0.23249999999999982 M 3.9840263671875 0.25649999999999984 Q 4.0470263671875 0.22199999999999986 4.132526367187499 0.22199999999999986 Q 4.2330263671875 0.22199999999999986 4.3147763671875 0.27449999999999986 Q 4.3965263671875 0.32699999999999985 4.4437763671875 0.4244999999999999 Q 4.4910263671875 0.5219999999999998 4.4910263671875 0.6524999999999999 Q 4.4910263671875 0.7829999999999999 4.4437763671875 0.8812499999999999 Q 4.3965263671875 0.9794999999999998 4.3147763671875 1.0319999999999998 Q 4.2330263671875 1.0844999999999998 4.132526367187499 1.0844999999999998 Q 4.0470263671875 1.0844999999999998 3.9847763671874996 1.0499999999999998 Q 3.9225263671875 1.0154999999999998 3.8865263671875 0.9569999999999999 L 3.8865263671875 1.476 L 3.5925263671875 1.476 L 3.5925263671875 0.23249999999999982 L 3.8865263671875 0.23249999999999982 L 3.8865263671875 0.3494999999999998 Q 3.9210263671875 0.2909999999999998 3.9840263671875 0.25649999999999984 M 4.1482763671875 0.5242499999999999 Q 4.1040263671875 0.4784999999999998 4.0395263671874995 0.4784999999999998 Q 3.9750263671874997 0.4784999999999998 3.9307763671875 0.5249999999999998 Q 3.8865263671875 0.5714999999999998 3.8865263671875 0.6524999999999999 Q 3.8865263671875 0.7349999999999999 3.9307763671875 0.7814999999999999 Q 3.9750263671874997 0.8279999999999998 4.0395263671874995 0.8279999999999998 Q 4.1040263671875 0.8279999999999998 4.1482763671875 0.7807499999999998 Q 4.1925263671875 0.7334999999999998 4.1925263671875 0.6524999999999999 Q 4.1925263671875 0.5699999999999998 4.1482763671875 0.5242499999999999 M 5.236515380859375 1.0739999999999998 L 4.905015380859375 0.6104999999999998 L 4.905015380859375 1.0739999999999998 L 4.611015380859374 1.0739999999999998 L 4.611015380859374 0.016499999999999737 L 4.905015380859375 0.016499999999999737 L 4.905015380859375 0.4724999999999998 L 5.233515380859375 0.016499999999999737 L 5.572515380859375 0.016499999999999737 L 5.184015380859375 0.5294999999999999 L 5.592015380859374 1.0739999999999998 L 5.236515380859375 1.0739999999999998 M 6.55953515625 0.23249999999999982 L 6.55953515625 1.0739999999999998 L 6.264035156249999 1.0739999999999998 L 6.264035156249999 0.9539999999999998 Q 6.22653515625 1.011 6.16053515625 1.04625 Q 6.09453515625 1.0815 6.0090351562499995 1.0815 Q 5.862035156249999 1.0815 5.77728515625 0.9847499999999998 Q 5.69253515625 0.8879999999999999 5.69253515625 0.7214999999999998 L 5.69253515625 0.23249999999999982 L 5.9850351562499995 0.23249999999999982 L 5.9850351562499995 0.6839999999999998 Q 5.9850351562499995 0.7559999999999998 6.02328515625 0.7972499999999998 Q 6.06153515625 0.8384999999999998 6.1245351562499994 0.8384999999999998 Q 6.18903515625 0.8384999999999998 6.22653515625 0.7972499999999998 Q 6.264035156249999 0.7559999999999998 6.264035156249999 0.6839999999999998 L 6.264035156249999 0.23249999999999982 L 6.55953515625 0.23249999999999982" fill="#044db5" fill-rule="nonzero"></path></g><g></g><g clip-path="url(#SvgjsClipPath1003)"><g clip-path="url(#SvgjsClipPath10015357a277-4067-4940-9324-3d5048e7e824)"><path d=" M 7.932575018270104 1.0464797416868565 C 7.933280065737129 1.0775986014569492 7.760294596033366 1.1267722061669536 7.505717162596556 1.1495825653942542 C 7.251153553619885 1.1723791001614168 7.044201385357651 1.1656465880743285 7.043496337890625 1.1345277283042359 C 7.042791290423599 1.1034088685341432 7.2485960284944 1.059695925578553 7.503173461931209 1.0368855663512528 C 7.757764719828156 1.0140752071239523 7.931869970803078 1.0153608819167639 7.932575018270104 1.0464797416868565 Z" fill="#f4f4f4" transform="matrix(1,0,0,1,0,0)" fill-rule="nonzero"></path></g><g clip-path="url(#SvgjsClipPath10015357a277-4067-4940-9324-3d5048e7e824)"><path d=" M 7.54170223233514 -0.056490985944010697 C 7.536227746120588 -0.05026997888201969 7.530932977887827 -0.043426871113829583 7.525900874397683 -0.03596166263944038 C 7.511108702050282 -0.05198421193910166 7.495252046272274 -0.06139866929291471 7.479091252371235 -0.06250462610393534 C 7.476879338749193 -0.06264287070531291 7.47468124958729 -0.06264287070531291 7.472510809345662 -0.062463152723522056 C 7.408531207828119 -0.057831958577373194 7.3620257239247024 0.07821455363830118 7.370901027333143 0.23462449563689275 C 7.370942500713555 0.2355507344661225 7.370983974093969 0.23647697329535233 7.37103927193452 0.2374446855049953 C 7.371481654658928 0.24450898463538956 7.366491024549198 0.25064704493655404 7.359827634762799 0.25122767226233983 L 7.359122587295773 0.25126914564275316 C 7.352403899668823 0.25184977296853894 7.34662527533124 0.24654118027563998 7.346182892606832 0.23943540776483246 C 7.346099945846005 0.23842622217477616 7.346044648005454 0.23740321212458204 7.346003174625041 0.23643549991493906 C 7.335980441025167 0.059814197194945545 7.390863547772065 -0.08307542278891891 7.4710177676507845 -0.0889093449670527 C 7.495998567119713 -0.09072034924509897 7.520066952219549 -0.07892808474759158 7.54170223233514 -0.056490985944010697 Z" fill="#044db5" transform="matrix(1,0,0,1,0,0)" fill-rule="nonzero"></path></g><g clip-path="url(#SvgjsClipPath10015357a277-4067-4940-9324-3d5048e7e824)"><path d=" M 7.631740941212357 0.21564351186775133 L 7.631740941212357 0.21590617661036876 C 7.632141850556351 0.22292900236034974 7.627109747066208 0.2289702914405498 7.620487830660222 0.2295509187663357 L 7.619782783193196 0.22959239214674898 C 7.613022622185833 0.23017301947253477 7.60724399784825 0.224740006638396 7.606843088504255 0.21757893628703745 L 7.606843088504255 0.21744069168565988 C 7.60193540515535 0.1313281294875666 7.58110194372775 0.05380055703502093 7.552623555843969 0.002221496261046646 C 7.557655659334112 -0.006612333766980588 7.562908954186461 -0.014519924965778044 7.568300493640186 -0.021445979494794695 C 7.602198069897968 0.033672143074445576 7.6262249816173915 0.11813959451614567 7.631740941212357 0.21564351186775133 Z" fill="#044db5" transform="matrix(1,0,0,1,0,0)" fill-rule="nonzero"></path></g><g clip-path="url(#SvgjsClipPath10015357a277-4067-4940-9324-3d5048e7e824)"><path d=" M 7.899755749903067 0.9512430357978431 L 7.288078686647836 1.1070308770902355 L 7.3086356588726815 0.12538361162833073 L 7.82685937159667 0.19595748063158425 Z" fill="#15c8ff" transform="matrix(1,0,0,1,0,0)" fill-rule="nonzero"></path></g><g clip-path="url(#SvgjsClipPath10015357a277-4067-4940-9324-3d5048e7e824)"><path d=" M 7.288078686647836 1.1070308770902355 L 7.149253457944472 1.060953951451089 L 7.0548323952035865 1.0629723226312016 L 7.2016896352469875 0.14043844871834896 L 7.3086356588726815 0.12538361162833073 Z" fill="#126cd8" transform="matrix(1,0,0,1,0,0)" fill-rule="nonzero"></path></g><g clip-path="url(#SvgjsClipPath10015357a277-4067-4940-9324-3d5048e7e824)"><path d=" M 7.26030534623108 0.13219907047624532 L 7.14926728240461 1.060953951451089 L 7.054818570743449 1.0629723226312016 L 7.201703459707125 0.14043844871834896 Z" fill="#044db5" transform="matrix(1,0,0,1,0,0)" fill-rule="nonzero"></path></g><g clip-path="url(#SvgjsClipPath10015357a277-4067-4940-9324-3d5048e7e824)"><path d=" M 7.49367605781657 0.23127897628355537 C 7.488395114043946 0.24294682063982298 7.475883977619275 0.24734299896362993 7.4657506483382985 0.2410805185212257 C 7.455617319057322 0.2348180380788214 7.451677347918062 0.22028853047403796 7.456958291690685 0.20860686165763265 C 7.462239235463308 0.19693901730136504 7.474750371887979 0.19254283897755808 7.484883701168956 0.19880531941996232 C 7.49503085491007 0.20506779986236662 7.498957001589193 0.21959730746715006 7.49367605781657 0.23127897628355537 Z" fill="#ffffff" transform="matrix(1,0,0,1,0,0)" fill-rule="nonzero"></path></g><g clip-path="url(#SvgjsClipPath10015357a277-4067-4940-9324-3d5048e7e824)"><path d=" M 7.755110423481707 0.25155945930564605 C 7.749829479709083 0.2632273036619136 7.737318343284413 0.2676234819857206 7.727185014003436 0.2613610015433163 C 7.71705168472246 0.255098521100912 7.713111713583199 0.24056901349612864 7.718392657355823 0.22888734467972327 C 7.7236736011284455 0.2172056758633179 7.736184737553117 0.21282332199964876 7.746318066834093 0.219085802442053 C 7.756465220575207 0.2253482828844573 7.760405191714469 0.23987779048924074 7.755110423481707 0.25155945930564605 Z" fill="#ffffff" transform="matrix(1,0,0,1,0,0)" fill-rule="nonzero"></path></g><g clip-path="url(#SvgjsClipPath10015357a277-4067-4940-9324-3d5048e7e824)"><path d=" M 7.488395114043946 0.21744069168565983 C 7.496966279329356 0.06643611360093152 7.554614278103806 -0.05827434130178146 7.6161331257168285 -0.0624908016437976 C 7.618317390418594 -0.06264287070531294 7.620529304040635 -0.06264287070531294 7.622727393202538 -0.06247697718365984 C 7.686679345799806 -0.057818134117235465 7.733212478623499 0.07822837809843891 7.724337175215059 0.234610671176755 C 7.724281877374507 0.2355507344661225 7.724226579533957 0.2364907977554901 7.724171281693405 0.23743086104485756 C 7.723742723429135 0.24450898463538956 7.728747177999003 0.25066086939669174 7.735396743325264 0.25122767226233983 L 7.73610179079229 0.2512829701028908 C 7.742792829498965 0.25183594850840113 7.748612927216961 0.2465273558155021 7.749055309941369 0.23942158330469465 C 7.74911060778192 0.2384262221747761 7.749179730082609 0.23741703658471974 7.74923502792316 0.2364216754548012 C 7.759257761523035 0.05982802165508325 7.70434700585586 -0.08307542278891901 7.624234259357554 -0.08890934496705279 C 7.54410768839911 -0.09472944268504882 7.473519994935718 0.03903603360789551 7.463497261335844 0.21562968740761346 L 7.463483436875706 0.21592000107050635 C 7.463096351991849 0.22292900236034957 7.468142279942131 0.22899794036082527 7.474736547427842 0.2295509187663356 L 7.475441594894867 0.22960621660688663 C 7.482187931442093 0.23017301947253466 7.487980380239813 0.22475383109853364 7.488381289583808 0.2175789362870374 L 7.488395114043946 0.21744069168565983 Z" fill="#044db5" transform="matrix(1,0,0,1,0,0)" fill-rule="nonzero"></path></g><g clip-path="url(#SvgjsClipPath10015357a277-4067-4940-9324-3d5048e7e824)"><path d=" M 7.3086356588726815 0.12538361162833073 L 7.3531642449764 0.4699168071815303 C 7.388693107530437 0.744816197020844 7.622561499680885 0.9507591796930216 7.899741925442929 0.9512430357978431 L 7.899741925442929 0.9512430357978431 L 7.288078686647836 1.1070308770902355 L 7.3086356588726815 0.12538361162833073 Z" fill="#00cfff" transform="matrix(1,0,0,1,0,0)" fill-rule="nonzero"></path></g></g></g><defs><clipPath id="SvgjsClipPath1003"><path d=" M 7.043496337890625 -0.08908906294884356 h 0.8890786803794787 v 1.252178125897687 h -0.8890786803794787 Z"></path></clipPath><clipPath id="SvgjsClipPath10015357a277-4067-4940-9324-3d5048e7e824"><path d=" M 7.043496337890625 -0.08908906294884356 L 7.932575018270104 -0.08908906294884356 L 7.932575018270104 1.1630890629488433 L 7.043496337890625 1.1630890629488433 Z"></path></clipPath></defs></svg>