<svg version="1.1" id="Layer_1" xmlns="http://www.w3.org/2000/svg" xmlns:xlink="http://www.w3.org/1999/xlink" x="0px" y="0px"
	 width="100%" viewBox="0 0 2204 2739" enable-background="new 0 0 2204 2739" xml:space="preserve">
<path fill="#FFFFFF" opacity="1.000000" stroke="none" 
	d="
M2206.000000,1030.000000 
	C2206.000000,1601.333374 2206.000000,2171.666748 2206.000000,2742.000000 
	C1471.333374,2742.000000 736.666687,2742.000000 2.000000,2742.000000 
	C2.000000,1828.666626 2.000000,915.333313 2.000000,2.000000 
	C736.666687,2.000000 1471.333374,2.000000 2206.000000,2.000000 
	C2206.000000,344.333344 2206.000000,686.666687 2206.000000,1030.000000 
M391.816833,2458.059082 
	C400.739075,2458.458496 410.193817,2457.086182 418.487274,2459.577881 
	C447.475281,2468.288574 476.074097,2478.298584 504.776062,2487.947754 
	C506.773193,2488.619141 508.403351,2490.382080 509.295807,2492.859619 
	C506.167450,2493.914307 503.106750,2495.282715 499.900024,2495.973633 
	C473.374115,2501.687256 446.683319,2506.701172 420.306549,2513.027832 
	C371.928131,2524.631836 323.634247,2536.752197 276.950134,2554.188232 
	C258.618835,2561.034668 240.723969,2569.201172 223.118790,2577.770020 
	C215.503128,2581.476318 208.893188,2587.440918 202.234085,2592.879150 
	C190.078674,2602.805176 192.218033,2617.392334 205.030838,2625.190918 
	C214.303711,2630.834961 224.300247,2636.186279 234.696533,2638.904297 
	C257.390350,2644.837402 280.394592,2649.951172 303.552338,2653.639648 
	C327.685669,2657.483887 352.113678,2659.650146 376.477722,2661.822021 
	C397.922363,2663.733643 419.444061,2664.906250 440.954773,2665.912598 
	C460.522186,2666.828613 480.202362,2667.424805 499.693970,2667.464355 
	C568.596313,2667.603760 637.535522,2670.267822 706.431763,2666.147217 
	C731.296387,2664.659912 756.253662,2664.765381 781.162842,2663.963379 
	C795.083618,2663.515137 808.989929,2662.636719 822.907288,2662.059814 
	C840.818237,2661.316650 858.735229,2660.717285 876.646851,2659.989258 
	C892.229065,2659.355713 907.807495,2658.628906 923.387634,2657.943604 
	C923.720581,2657.928955 924.054321,2657.924805 924.386353,2657.898438 
	C940.882263,2656.600342 957.367615,2655.144043 973.876953,2654.048096 
	C987.774841,2653.125732 1001.706299,2652.718994 1015.611938,2651.898438 
	C1024.865967,2651.352539 1034.104858,2650.530029 1043.342896,2649.742676 
	C1057.512207,2648.535400 1071.667480,2647.155273 1085.843018,2646.031006 
	C1096.742920,2645.166504 1107.692993,2644.868652 1118.571045,2643.808350 
	C1136.004272,2642.109619 1153.377197,2639.790527 1170.811401,2638.102539 
	C1187.612061,2636.475830 1204.461792,2635.361572 1221.282349,2633.930908 
	C1228.865601,2633.285889 1236.440552,2632.510010 1244.001099,2631.635498 
	C1259.754761,2629.813232 1275.488403,2627.817627 1291.245239,2626.023193 
	C1304.719727,2624.489014 1318.247559,2623.388184 1331.692871,2621.641113 
	C1349.381592,2619.342773 1366.989990,2616.428223 1384.674805,2614.096191 
	C1402.045898,2611.805664 1419.533203,2610.337646 1436.855835,2607.748291 
	C1464.959717,2603.547363 1492.979248,2598.777100 1521.018799,2594.152588 
	C1553.967163,2588.718506 1587.047974,2583.943115 1619.801392,2577.507324 
	C1664.605835,2568.704346 1709.320679,2559.308838 1753.773804,2548.887451 
	C1810.298340,2535.635498 1866.592529,2521.263184 1920.934448,2500.464844 
	C1942.629761,2492.161377 1964.124146,2483.164795 1985.092285,2473.186035 
	C2000.378906,2465.910889 2014.439087,2456.298584 2025.834839,2443.267822 
	C2033.841675,2434.112549 2034.026123,2423.665039 2025.872803,2414.819580 
	C2020.356689,2408.834961 2014.220215,2404.018066 2006.208862,2401.755615 
	C1994.433594,2398.430420 1982.840820,2394.401367 1970.971924,2391.477783 
	C1949.083252,2386.085693 1926.699219,2383.765625 1904.266235,2381.996826 
	C1894.691528,2381.242188 1885.109985,2380.571289 1875.529419,2379.893311 
	C1857.034180,2378.584229 1838.536133,2376.175293 1820.041504,2376.195068 
	C1742.463867,2376.278564 1664.866943,2374.503906 1587.311035,2377.958740 
	C1566.076294,2378.904785 1544.818970,2379.345947 1523.572021,2380.020752 
	C1522.905884,2380.041748 1522.238892,2380.059570 1521.574707,2380.110840 
	C1504.744751,2381.404053 1487.919556,2382.760498 1471.084106,2383.977051 
	C1460.511475,2384.740967 1449.929321,2385.414551 1439.341431,2385.917969 
	C1422.766357,2386.705811 1406.179932,2387.255371 1389.604736,2388.040283 
	C1385.325317,2388.242920 1381.078857,2389.217529 1376.801147,2389.361816 
	C1368.389893,2389.645264 1359.770508,2392.215088 1352.898071,2386.605713 
	C1354.196533,2386.310547 1355.502441,2386.044189 1356.792480,2385.716064 
	C1537.612183,2339.680176 1718.435791,2293.659912 1899.242065,2247.571533 
	C1918.880737,2242.565674 1938.418457,2237.163086 1959.673096,2232.026611 
	C1961.174194,2230.613281 1963.687866,2229.370850 1963.961792,2227.750000 
	C1964.503174,2224.547119 1963.929321,2221.122314 1963.600464,2217.810547 
	C1960.541016,2187.010010 1957.362915,2156.221191 1954.359253,2125.415283 
	C1948.965088,2070.094482 1943.624023,2014.768677 1938.344238,1959.437012 
	C1934.044434,1914.374878 1929.962524,1869.291870 1925.608398,1824.234985 
	C1920.614014,1772.555298 1915.386597,1720.898315 1910.333252,1669.224243 
	C1905.636230,1621.193115 1901.031616,1573.152832 1896.392822,1525.115967 
	C1891.050171,1469.790161 1885.714844,1414.463623 1880.376099,1359.137451 
	C1875.037354,1303.811401 1869.697754,1248.485474 1864.359375,1193.159424 
	C1859.020874,1137.833374 1853.684326,1082.507080 1848.346191,1027.180908 
	C1843.007812,971.854492 1837.621948,916.532654 1832.343750,861.200562 
	C1827.381592,809.180298 1822.564941,757.146118 1817.609009,705.125244 
	C1816.478149,693.255249 1815.038818,681.414734 1813.716553,669.333313 
	C1811.585693,668.869629 1810.019165,668.417908 1808.420654,668.197510 
	C1780.073975,664.287964 1751.732422,660.340210 1723.370972,656.540649 
	C1700.947388,653.536499 1678.498413,650.722046 1655.599365,646.063904 
	C1653.794067,589.767456 1650.542358,533.603760 1642.295654,477.796600 
	C1633.956543,421.365387 1622.075073,365.784424 1603.849243,311.682098 
	C1587.303711,262.568085 1566.530273,215.439667 1536.250366,173.017349 
	C1514.737427,142.877701 1489.654419,116.389793 1456.712524,98.462753 
	C1414.916138,75.717072 1371.739380,73.546295 1327.667236,91.095451 
	C1296.428955,103.534225 1270.699463,123.952515 1247.711792,148.063416 
	C1214.984985,182.389175 1189.896362,221.960205 1168.727661,264.134735 
	C1126.866943,347.534424 1101.332642,436.212799 1084.017090,527.522583 
	C1081.423584,541.198669 1078.750366,554.859619 1074.384888,568.238647 
	C1056.639038,565.868225 1038.887939,563.536255 1021.148499,561.119263 
	C984.358948,556.106750 947.563110,551.137329 910.796692,545.959656 
	C898.721985,544.259277 886.730103,541.970947 875.153992,538.178833 
	C876.692566,525.288330 878.109619,512.381897 879.790649,499.509979 
	C887.436523,440.964966 899.657654,383.426270 918.417480,327.386810 
	C932.310181,285.886597 949.648865,245.954514 974.492554,209.673676 
	C991.792053,184.410019 1012.029968,162.020538 1039.389404,147.208481 
	C1064.597534,133.561234 1090.962036,130.587570 1118.550171,139.150772 
	C1143.748169,146.972061 1163.980713,162.399887 1182.717896,180.232941 
	C1185.542969,182.921738 1188.337646,185.642471 1191.417480,188.609619 
	C1202.416382,174.382507 1212.959229,160.745239 1223.863281,146.640778 
	C1197.143555,118.893364 1167.021240,96.515167 1129.432739,85.662453 
	C1090.422607,74.399330 1053.028198,78.810020 1017.336487,97.913216 
	C997.181519,108.700714 979.620728,122.894432 964.003174,139.534576 
	C931.674988,173.979568 908.351929,214.146591 889.751160,257.217285 
	C851.616516,345.519470 832.745605,438.478333 821.827942,533.709534 
	C809.733154,532.116577 797.649170,530.434570 785.540710,528.953613 
	C771.156494,527.194397 756.751099,525.608032 740.555603,523.671692 
	C722.442322,526.108643 704.314575,528.443420 686.220337,531.014465 
	C671.451721,533.112976 656.723206,535.493652 640.221924,537.516235 
	C600.711487,542.931885 561.201050,548.347595 521.289246,553.818298 
	C420.431305,1187.284180 319.698090,1819.964600 218.980621,2452.647461 
	C218.617462,2454.928955 218.469025,2457.245361 218.255051,2459.548828 
	C218.225967,2459.862061 218.329651,2460.240479 218.501511,2460.504150 
	C218.663803,2460.752930 218.997269,2460.890381 219.890030,2461.534912 
	C221.533478,2461.534912 223.835449,2461.576904 226.135529,2461.528320 
	C249.451248,2461.036621 272.767639,2460.570068 296.081970,2460.018555 
	C327.384705,2459.278320 358.685791,2458.469238 391.816833,2458.059082 
z"/>
<path fill="#15C8FF" opacity="1.000000" stroke="none" 
	d="
M742.354919,523.946716 
	C756.751099,525.608032 771.156494,527.194397 785.540710,528.953613 
	C797.649170,530.434570 809.733154,532.116577 823.512390,533.824463 
	C827.459045,534.256409 829.716553,534.613098 831.984314,534.883850 
	C846.221741,536.583679 860.461365,538.264465 874.700317,539.951477 
	C886.730103,541.970947 898.721985,544.259277 910.796692,545.959656 
	C947.563110,551.137329 984.358948,556.106750 1021.148499,561.119263 
	C1038.887939,563.536255 1056.639038,565.868225 1075.305420,569.217285 
	C1074.219604,585.210693 1071.997192,600.200378 1070.259521,615.246155 
	C1067.878540,635.863403 1065.865601,656.523071 1063.159180,677.423950 
	C1039.929565,695.130981 1037.216919,734.605469 1060.156494,756.746277 
	C1072.683350,768.837097 1090.956543,771.823181 1105.337769,763.776978 
	C1137.772217,745.630432 1135.067871,699.609009 1115.976685,682.831665 
	C1118.848877,646.434753 1122.221558,610.968750 1129.861206,575.951904 
	C1162.066895,580.208679 1193.354736,584.409119 1224.636963,588.650513 
	C1265.790527,594.230530 1306.939697,599.842834 1348.957764,605.543335 
	C1354.373901,606.239929 1358.918335,606.872559 1363.473022,607.421509 
	C1376.159302,608.950317 1388.849976,610.444458 1402.226929,612.394775 
	C1419.672363,615.202148 1436.424072,617.607788 1453.188232,619.922852 
	C1485.418091,624.373779 1517.645874,628.841003 1549.892456,633.167725 
	C1567.653564,635.550781 1585.451294,637.662231 1603.422852,640.820801 
	C1603.727661,648.716370 1603.994507,655.688843 1603.927734,662.658081 
	C1603.743408,681.900757 1603.419922,701.141968 1602.624023,720.688721 
	C1580.663940,737.078979 1577.141357,778.371826 1602.486938,800.286194 
	C1619.991211,815.420959 1644.464600,812.737305 1659.083252,794.795532 
	C1675.557983,774.575623 1673.777344,740.380920 1655.495605,722.705078 
	C1655.661011,697.135925 1655.860962,672.479675 1656.060791,647.823364 
	C1678.498413,650.722046 1700.947388,653.536499 1723.370972,656.540649 
	C1751.732422,660.340210 1780.073975,664.287964 1808.420654,668.197510 
	C1810.019165,668.417908 1811.585693,668.869629 1813.716553,669.333313 
	C1815.038818,681.414734 1816.478149,693.255249 1817.609009,705.125244 
	C1822.564941,757.146118 1827.381592,809.180298 1832.343750,861.200562 
	C1837.621948,916.532654 1843.007812,971.854492 1848.346191,1027.180908 
	C1853.684326,1082.507080 1859.020874,1137.833374 1864.359375,1193.159424 
	C1869.697754,1248.485474 1875.037354,1303.811401 1880.376099,1359.137451 
	C1885.714844,1414.463623 1891.050171,1469.790161 1896.392822,1525.115967 
	C1901.031616,1573.152832 1905.636230,1621.193115 1910.333252,1669.224243 
	C1915.386597,1720.898315 1920.614014,1772.555298 1925.608398,1824.234985 
	C1929.962524,1869.291870 1934.044434,1914.374878 1938.344238,1959.437012 
	C1943.624023,2014.768677 1948.965088,2070.094482 1954.359253,2125.415283 
	C1957.362915,2156.221191 1960.541016,2187.010010 1963.600464,2217.810547 
	C1963.929321,2221.122314 1964.503174,2224.547119 1963.961792,2227.750000 
	C1963.687866,2229.370850 1961.174194,2230.613281 1958.239258,2231.404297 
	C1955.180542,2230.522949 1953.561157,2230.082764 1951.929688,2230.032227 
	C1929.022705,2229.322021 1906.114014,2228.667969 1883.206177,2227.987305 
	C1881.544434,2227.937988 1879.877197,2227.863525 1878.226929,2227.674805 
	C1861.814819,2225.800049 1845.403931,2223.914307 1828.996460,2222.000000 
	C1816.517090,2220.543945 1803.972290,2219.476318 1791.583862,2217.455078 
	C1774.629272,2214.689209 1757.683350,2211.677979 1740.933960,2207.887207 
	C1710.264648,2200.946289 1679.492798,2194.247803 1649.233032,2185.772217 
	C1622.406860,2178.258301 1595.866089,2169.389648 1569.838989,2159.445068 
	C1539.150635,2147.719482 1508.782104,2134.992676 1478.946045,2121.243408 
	C1442.397217,2104.400391 1406.722290,2085.636475 1372.689087,2064.103760 
	C1346.341187,2047.433472 1320.308716,2030.155396 1295.111328,2011.808105 
	C1271.562622,1994.661011 1249.101074,1975.990967 1226.536987,1957.531860 
	C1211.405029,1945.152466 1196.332520,1932.586792 1182.307617,1918.995972 
	C1163.924927,1901.182129 1146.313599,1882.542114 1128.908325,1863.759033 
	C1114.037354,1847.710571 1099.845215,1831.028320 1085.496948,1814.501343 
	C1064.823853,1790.689331 1046.130371,1765.364014 1028.274902,1739.390869 
	C1004.172180,1704.329834 981.372559,1668.440918 961.601257,1630.769897 
	C948.306458,1605.439087 935.649719,1579.713623 924.052795,1553.568115 
	C912.351990,1527.188599 901.701050,1500.298340 891.690125,1473.225098 
	C877.298340,1434.304565 865.526978,1394.515259 856.437317,1354.014893 
	C851.007141,1329.819946 846.501160,1305.411377 841.901611,1281.038086 
	C839.023315,1265.786133 836.575745,1250.446655 834.251038,1235.098511 
	C832.568481,1223.989868 831.374207,1212.806396 830.018677,1201.649414 
	C828.463501,1188.849487 827.056335,1176.031128 825.427429,1163.240845 
	C823.716675,1149.808838 821.740723,1136.410767 820.026672,1122.979248 
	C818.436096,1110.516357 817.136597,1098.016235 815.528748,1085.555664 
	C813.796143,1072.127930 811.848694,1058.727905 810.005127,1045.314453 
	C808.116638,1031.573975 806.193848,1017.837891 804.372925,1004.088379 
	C802.853638,992.616516 801.423279,981.132385 800.020508,969.645569 
	C798.457397,956.846802 797.055298,944.027893 795.426392,931.237732 
	C793.715637,917.805786 791.740662,904.407593 790.026611,890.976074 
	C788.436157,878.513306 787.135742,866.013367 785.527893,853.552917 
	C783.795288,840.125000 781.848633,826.724792 780.005127,813.311157 
	C778.116638,799.570251 776.193481,785.833862 774.372437,772.083984 
	C772.853149,760.612366 771.423096,749.128540 770.020203,737.641968 
	C768.457092,724.843323 767.054443,712.024658 765.425537,699.234558 
	C763.714844,685.802551 761.740601,672.404053 760.026489,658.972473 
	C758.436096,646.509583 757.148743,634.007690 755.523010,621.549744 
	C753.813843,608.452454 751.765686,595.399414 750.044128,582.303650 
	C748.536560,570.835571 747.389893,559.318970 745.762817,547.869385 
	C745.560608,546.446167 743.388916,545.302856 742.053955,543.119751 
	C742.103638,536.122070 742.229309,530.034363 742.354919,523.946716 
z"/>
<path fill="#00CFFF" opacity="1.000000" stroke="none" 
	d="
M742.129822,544.029846 
	C743.388916,545.302856 745.560608,546.446167 745.762817,547.869385 
	C747.389893,559.318970 748.536560,570.835571 750.044128,582.303650 
	C751.765686,595.399414 753.813843,608.452454 755.523010,621.549744 
	C757.148743,634.007690 758.436096,646.509583 760.026489,658.972473 
	C761.740601,672.404053 763.714844,685.802551 765.425537,699.234558 
	C767.054443,712.024658 768.457092,724.843323 770.020203,737.641968 
	C771.423096,749.128540 772.853149,760.612366 774.372437,772.083984 
	C776.193481,785.833862 778.116638,799.570251 780.005127,813.311157 
	C781.848633,826.724792 783.795288,840.125000 785.527893,853.552917 
	C787.135742,866.013367 788.436157,878.513306 790.026611,890.976074 
	C791.740662,904.407593 793.715637,917.805786 795.426392,931.237732 
	C797.055298,944.027893 798.457397,956.846802 800.020508,969.645569 
	C801.423279,981.132385 802.853638,992.616516 804.372925,1004.088379 
	C806.193848,1017.837891 808.116638,1031.573975 810.005127,1045.314453 
	C811.848694,1058.727905 813.796143,1072.127930 815.528748,1085.555664 
	C817.136597,1098.016235 818.436096,1110.516357 820.026672,1122.979248 
	C821.740723,1136.410767 823.716675,1149.808838 825.427429,1163.240845 
	C827.056335,1176.031128 828.463501,1188.849487 830.018677,1201.649414 
	C831.374207,1212.806396 832.568481,1223.989868 834.251038,1235.098511 
	C836.575745,1250.446655 839.023315,1265.786133 841.901611,1281.038086 
	C846.501160,1305.411377 851.007141,1329.819946 856.437317,1354.014893 
	C865.526978,1394.515259 877.298340,1434.304565 891.690125,1473.225098 
	C901.701050,1500.298340 912.351990,1527.188599 924.052795,1553.568115 
	C935.649719,1579.713623 948.306458,1605.439087 961.601257,1630.769897 
	C981.372559,1668.440918 1004.172180,1704.329834 1028.274902,1739.390869 
	C1046.130371,1765.364014 1064.823853,1790.689331 1085.496948,1814.501343 
	C1099.845215,1831.028320 1114.037354,1847.710571 1128.908325,1863.759033 
	C1146.313599,1882.542114 1163.924927,1901.182129 1182.307617,1918.995972 
	C1196.332520,1932.586792 1211.405029,1945.152466 1226.536987,1957.531860 
	C1249.101074,1975.990967 1271.562622,1994.661011 1295.111328,2011.808105 
	C1320.308716,2030.155396 1346.341187,2047.433472 1372.689087,2064.103760 
	C1406.722290,2085.636475 1442.397217,2104.400391 1478.946045,2121.243408 
	C1508.782104,2134.992676 1539.150635,2147.719482 1569.838989,2159.445068 
	C1595.866089,2169.389648 1622.406860,2178.258301 1649.233032,2185.772217 
	C1679.492798,2194.247803 1710.264648,2200.946289 1740.933960,2207.887207 
	C1757.683350,2211.677979 1774.629272,2214.689209 1791.583862,2217.455078 
	C1803.972290,2219.476318 1816.517090,2220.543945 1828.996460,2222.000000 
	C1845.403931,2223.914307 1861.814819,2225.800049 1878.226929,2227.674805 
	C1879.877197,2227.863525 1881.544434,2227.937988 1883.206177,2227.987305 
	C1906.114014,2228.667969 1929.022705,2229.322021 1951.929688,2230.032227 
	C1953.561157,2230.082764 1955.180542,2230.522949 1957.404297,2231.363281 
	C1938.418457,2237.163086 1918.880737,2242.565674 1899.242065,2247.571533 
	C1718.435791,2293.659912 1537.612183,2339.680176 1356.792480,2385.716064 
	C1355.502441,2386.044189 1354.196533,2386.310547 1351.502075,2387.071289 
	C1343.972900,2389.024658 1337.823730,2390.449707 1331.708618,2392.008301 
	C1128.499390,2443.795410 925.296631,2495.608643 722.073669,2547.342285 
	C714.730225,2549.211182 707.192139,2550.316162 699.817505,2550.856445 
	C700.530457,2529.327637 701.289734,2508.722656 701.783508,2488.110840 
	C702.556580,2455.845215 703.148376,2423.575195 703.820435,2391.307129 
	C704.485413,2359.372314 705.153076,2327.437500 705.822449,2295.502686 
	C706.484863,2263.901123 707.150818,2232.299316 707.815186,2200.697754 
	C708.479553,2169.095947 709.146851,2137.493896 709.807617,2105.892090 
	C710.482361,2073.623779 711.149597,2041.355591 711.822205,2009.087280 
	C712.487854,1977.152222 713.153137,1945.217163 713.824158,1913.282227 
	C714.481262,1882.013672 715.149475,1850.745361 715.805054,1819.476807 
	C716.481689,1787.208496 717.147034,1754.939941 717.820984,1722.671509 
	C718.481018,1691.069458 719.148376,1659.467529 719.807373,1627.865479 
	C720.487122,1595.264160 721.153748,1562.662720 721.838867,1530.061523 
	C722.482056,1499.459229 723.153015,1468.857422 723.791748,1438.254883 
	C724.486084,1404.987427 725.146851,1371.719238 725.841797,1338.451782 
	C726.481018,1307.848999 727.162476,1277.247070 727.795471,1246.644165 
	C728.504272,1212.377319 729.160461,1178.109619 729.874939,1143.842896 
	C730.492188,1114.239624 731.191162,1084.637939 731.795715,1055.034546 
	C732.522766,1019.435120 733.150452,983.833679 733.892334,948.234619 
	C734.467590,920.629700 735.204407,893.028137 735.775391,865.423157 
	C736.525513,829.157898 737.224426,792.891602 737.857483,756.624146 
	C738.066833,744.631958 737.868225,732.632385 738.091797,720.640564 
	C738.674561,689.370483 739.345154,658.101929 740.061707,626.834595 
	C740.694275,599.231689 741.436157,571.631348 742.129822,544.029846 
z"/>
<path fill="#126CD8" opacity="1.000000" stroke="none" 
	d="
M742.053955,543.119751 
	C741.436157,571.631348 740.694275,599.231689 740.061707,626.834595 
	C739.345154,658.101929 738.674561,689.370483 738.091797,720.640564 
	C737.868225,732.632385 738.066833,744.631958 737.857483,756.624146 
	C737.224426,792.891602 736.525513,829.157898 735.775391,865.423157 
	C735.204407,893.028137 734.467590,920.629700 733.892334,948.234619 
	C733.150452,983.833679 732.522766,1019.435120 731.795715,1055.034546 
	C731.191162,1084.637939 730.492188,1114.239624 729.874939,1143.842896 
	C729.160461,1178.109619 728.504272,1212.377319 727.795471,1246.644165 
	C727.162476,1277.247070 726.481018,1307.848999 725.841797,1338.451782 
	C725.146851,1371.719238 724.486084,1404.987427 723.791748,1438.254883 
	C723.153015,1468.857422 722.482056,1499.459229 721.838867,1530.061523 
	C721.153748,1562.662720 720.487122,1595.264160 719.807373,1627.865479 
	C719.148376,1659.467529 718.481018,1691.069458 717.820984,1722.671509 
	C717.147034,1754.939941 716.481689,1787.208496 715.805054,1819.476807 
	C715.149475,1850.745361 714.481262,1882.013672 713.824158,1913.282227 
	C713.153137,1945.217163 712.487854,1977.152222 711.822205,2009.087280 
	C711.149597,2041.355591 710.482361,2073.623779 709.807617,2105.892090 
	C709.146851,2137.493896 708.479553,2169.095947 707.815186,2200.697754 
	C707.150818,2232.299316 706.484863,2263.901123 705.822449,2295.502686 
	C705.153076,2327.437500 704.485413,2359.372314 703.820435,2391.307129 
	C703.148376,2423.575195 702.556580,2455.845215 701.783508,2488.110840 
	C701.289734,2508.722656 700.530457,2529.327637 699.088379,2550.909180 
	C639.776672,2532.536133 581.278076,2513.155029 522.731995,2493.918701 
	C518.737488,2492.606201 514.388367,2492.372803 510.204163,2491.637695 
	C508.403351,2490.382080 506.773193,2488.619141 504.776062,2487.947754 
	C476.074097,2478.298584 447.475281,2468.288574 418.487274,2459.577881 
	C410.193817,2457.086182 400.739075,2458.458496 391.541901,2457.357422 
	C398.470642,2456.202393 405.674316,2455.748535 412.861664,2455.296143 
	C414.601196,2443.189209 416.351440,2431.795166 417.848419,2420.367920 
	C419.352112,2408.889404 420.705872,2397.389160 421.939789,2385.878418 
	C423.491943,2371.398438 424.622375,2356.869873 426.358185,2342.413330 
	C428.683105,2323.050049 431.585480,2303.756104 433.921967,2284.394043 
	C436.260468,2265.015137 438.030457,2245.567383 440.376678,2226.189453 
	C442.680908,2207.158203 445.617065,2188.202393 447.869965,2169.165527 
	C450.202820,2149.453125 452.021149,2129.680420 454.121216,2109.939941 
	C454.856140,2103.031982 455.722900,2096.137695 456.593811,2089.245117 
	C458.375671,2075.143799 460.275452,2061.056885 461.986725,2046.946899 
	C463.580200,2033.808105 464.928467,2020.639771 466.501038,2007.498291 
	C468.268372,1992.729004 470.232513,1977.983398 471.987213,1963.212769 
	C473.548676,1950.068481 474.869019,1936.895630 476.426910,1923.750854 
	C478.216339,1908.652466 480.204254,1893.577759 482.004547,1878.480591 
	C483.532562,1865.666626 484.768188,1852.816772 486.405090,1840.017456 
	C488.082031,1826.905151 490.357849,1813.866455 491.889252,1800.739258 
	C494.189362,1781.022705 495.919678,1761.239990 498.167816,1741.516968 
	C500.639343,1719.834106 503.387756,1698.182373 506.089233,1676.526367 
	C507.070740,1668.657959 508.350159,1660.826904 509.342285,1652.959717 
	C510.956482,1640.159302 512.541016,1627.353760 513.962952,1614.531006 
	C515.531433,1600.386597 516.773682,1586.205566 518.394165,1572.067627 
	C520.125549,1556.962524 522.155762,1541.891724 524.012390,1526.800781 
	C525.547607,1514.322510 526.985046,1501.832397 528.529419,1489.355225 
	C530.316040,1474.921509 532.259216,1460.506958 533.972839,1446.064697 
	C535.571533,1432.591675 536.829651,1419.077759 538.474365,1405.610718 
	C540.156860,1391.833008 542.294006,1378.110107 543.924194,1364.326782 
	C545.556458,1350.525757 546.590881,1336.652954 548.278687,1322.859497 
	C550.647583,1303.500732 553.598450,1284.212158 555.892639,1264.845215 
	C558.227722,1245.133423 559.805176,1225.331055 562.192566,1205.626221 
	C565.174805,1181.012329 568.774048,1156.473633 571.867188,1131.872314 
	C574.713745,1109.232422 577.316345,1086.561035 579.888733,1063.887817 
	C582.051819,1044.822144 583.992493,1025.731445 586.082031,1006.657349 
	C586.874573,999.423035 587.756775,992.197571 588.687805,984.979614 
	C590.421692,971.537476 592.349487,958.119202 593.957703,944.662415 
	C595.567749,931.191162 596.742737,917.667725 598.371155,904.198975 
	C600.077026,890.090332 602.252258,876.038208 603.932617,861.926880 
	C605.575928,848.126465 606.688782,834.262756 608.338440,820.463196 
	C610.025269,806.352112 612.247742,792.304932 613.928345,778.193176 
	C615.571777,764.393066 616.675049,750.528992 618.288452,736.724915 
	C620.744690,715.709045 623.451355,694.722412 626.019958,673.719543 
	C626.943726,666.165588 627.738159,658.595703 628.658264,651.041260 
	C630.416809,636.602051 632.251770,622.172241 634.001099,607.731934 
	C635.552856,594.922302 637.067566,582.107971 638.531433,569.288025 
	C639.731201,558.780945 640.832092,548.262634 641.976868,537.749268 
	C656.723206,535.493652 671.451721,533.112976 686.220337,531.014465 
	C704.314575,528.443420 722.442322,526.108643 741.455261,523.809204 
	C742.229309,530.034363 742.103638,536.122070 742.053955,543.119751 
z"/>
<path fill="#054DB5" opacity="1.000000" stroke="none" 
	d="
M641.099365,537.632751 
	C640.832092,548.262634 639.731201,558.780945 638.531433,569.288025 
	C637.067566,582.107971 635.552856,594.922302 634.001099,607.731934 
	C632.251770,622.172241 630.416809,636.602051 628.658264,651.041260 
	C627.738159,658.595703 626.943726,666.165588 626.019958,673.719543 
	C623.451355,694.722412 620.744690,715.709045 618.288452,736.724915 
	C616.675049,750.528992 615.571777,764.393066 613.928345,778.193176 
	C612.247742,792.304932 610.025269,806.352112 608.338440,820.463196 
	C606.688782,834.262756 605.575928,848.126465 603.932617,861.926880 
	C602.252258,876.038208 600.077026,890.090332 598.371155,904.198975 
	C596.742737,917.667725 595.567749,931.191162 593.957703,944.662415 
	C592.349487,958.119202 590.421692,971.537476 588.687805,984.979614 
	C587.756775,992.197571 586.874573,999.423035 586.082031,1006.657349 
	C583.992493,1025.731445 582.051819,1044.822144 579.888733,1063.887817 
	C577.316345,1086.561035 574.713745,1109.232422 571.867188,1131.872314 
	C568.774048,1156.473633 565.174805,1181.012329 562.192566,1205.626221 
	C559.805176,1225.331055 558.227722,1245.133423 555.892639,1264.845215 
	C553.598450,1284.212158 550.647583,1303.500732 548.278687,1322.859497 
	C546.590881,1336.652954 545.556458,1350.525757 543.924194,1364.326782 
	C542.294006,1378.110107 540.156860,1391.833008 538.474365,1405.610718 
	C536.829651,1419.077759 535.571533,1432.591675 533.972839,1446.064697 
	C532.259216,1460.506958 530.316040,1474.921509 528.529419,1489.355225 
	C526.985046,1501.832397 525.547607,1514.322510 524.012390,1526.800781 
	C522.155762,1541.891724 520.125549,1556.962524 518.394165,1572.067627 
	C516.773682,1586.205566 515.531433,1600.386597 513.962952,1614.531006 
	C512.541016,1627.353760 510.956482,1640.159302 509.342285,1652.959717 
	C508.350159,1660.826904 507.070740,1668.657959 506.089233,1676.526367 
	C503.387756,1698.182373 500.639343,1719.834106 498.167816,1741.516968 
	C495.919678,1761.239990 494.189362,1781.022705 491.889252,1800.739258 
	C490.357849,1813.866455 488.082031,1826.905151 486.405090,1840.017456 
	C484.768188,1852.816772 483.532562,1865.666626 482.004547,1878.480591 
	C480.204254,1893.577759 478.216339,1908.652466 476.426910,1923.750854 
	C474.869019,1936.895630 473.548676,1950.068481 471.987213,1963.212769 
	C470.232513,1977.983398 468.268372,1992.729004 466.501038,2007.498291 
	C464.928467,2020.639771 463.580200,2033.808105 461.986725,2046.946899 
	C460.275452,2061.056885 458.375671,2075.143799 456.593811,2089.245117 
	C455.722900,2096.137695 454.856140,2103.031982 454.121216,2109.939941 
	C452.021149,2129.680420 450.202820,2149.453125 447.869965,2169.165527 
	C445.617065,2188.202393 442.680908,2207.158203 440.376678,2226.189453 
	C438.030457,2245.567383 436.260468,2265.015137 433.921967,2284.394043 
	C431.585480,2303.756104 428.683105,2323.050049 426.358185,2342.413330 
	C424.622375,2356.869873 423.491943,2371.398438 421.939789,2385.878418 
	C420.705872,2397.389160 419.352112,2408.889404 417.848419,2420.367920 
	C416.351440,2431.795166 414.601196,2443.189209 412.861664,2455.296143 
	C405.674316,2455.748535 398.470642,2456.202393 390.627289,2457.172852 
	C358.685791,2458.469238 327.384705,2459.278320 296.081970,2460.018555 
	C272.767639,2460.570068 249.451248,2461.036621 226.135529,2461.528320 
	C223.835449,2461.576904 221.533478,2461.534912 219.890030,2461.534912 
	C218.997269,2460.890381 218.663803,2460.752930 218.501511,2460.504150 
	C218.329651,2460.240479 218.225967,2459.862061 218.255051,2459.548828 
	C218.469025,2457.245361 218.617462,2454.928955 218.980621,2452.647461 
	C319.698090,1819.964600 420.431305,1187.284180 521.289246,553.818298 
	C561.201050,548.347595 600.711487,542.931885 641.099365,537.632751 
z"/>
<path fill="#F4F4F4" opacity="1.000000" stroke="none" 
	d="
M509.750000,2492.248535 
	C514.388367,2492.372803 518.737488,2492.606201 522.731995,2493.918701 
	C581.278076,2513.155029 639.776672,2532.536133 699.015686,2551.829834 
	C707.192139,2550.316162 714.730225,2549.211182 722.073669,2547.342285 
	C925.296631,2495.608643 1128.499390,2443.795410 1331.708618,2392.008301 
	C1337.823730,2390.449707 1343.972900,2389.024658 1350.908447,2387.535645 
	C1359.770508,2392.215088 1368.389893,2389.645264 1376.801147,2389.361816 
	C1381.078857,2389.217529 1385.325317,2388.242920 1389.604736,2388.040283 
	C1406.179932,2387.255371 1422.766357,2386.705811 1439.341431,2385.917969 
	C1449.929321,2385.414551 1460.511475,2384.740967 1471.084106,2383.977051 
	C1487.919556,2382.760498 1504.744751,2381.404053 1521.574707,2380.110840 
	C1522.238892,2380.059570 1522.905884,2380.041748 1523.572021,2380.020752 
	C1544.818970,2379.345947 1566.076294,2378.904785 1587.311035,2377.958740 
	C1664.866943,2374.503906 1742.463867,2376.278564 1820.041504,2376.195068 
	C1838.536133,2376.175293 1857.034180,2378.584229 1875.529419,2379.893311 
	C1885.109985,2380.571289 1894.691528,2381.242188 1904.266235,2381.996826 
	C1926.699219,2383.765625 1949.083252,2386.085693 1970.971924,2391.477783 
	C1982.840820,2394.401367 1994.433594,2398.430420 2006.208862,2401.755615 
	C2014.220215,2404.018066 2020.356689,2408.834961 2025.872803,2414.819580 
	C2034.026123,2423.665039 2033.841675,2434.112549 2025.834839,2443.267822 
	C2014.439087,2456.298584 2000.378906,2465.910889 1985.092285,2473.186035 
	C1964.124146,2483.164795 1942.629761,2492.161377 1920.934448,2500.464844 
	C1866.592529,2521.263184 1810.298340,2535.635498 1753.773804,2548.887451 
	C1709.320679,2559.308838 1664.605835,2568.704346 1619.801392,2577.507324 
	C1587.047974,2583.943115 1553.967163,2588.718506 1521.018799,2594.152588 
	C1492.979248,2598.777100 1464.959717,2603.547363 1436.855835,2607.748291 
	C1419.533203,2610.337646 1402.045898,2611.805664 1384.674805,2614.096191 
	C1366.989990,2616.428223 1349.381592,2619.342773 1331.692871,2621.641113 
	C1318.247559,2623.388184 1304.719727,2624.489014 1291.245239,2626.023193 
	C1275.488403,2627.817627 1259.754761,2629.813232 1244.001099,2631.635498 
	C1236.440552,2632.510010 1228.865601,2633.285889 1221.282349,2633.930908 
	C1204.461792,2635.361572 1187.612061,2636.475830 1170.811401,2638.102539 
	C1153.377197,2639.790527 1136.004272,2642.109619 1118.571045,2643.808350 
	C1107.692993,2644.868652 1096.742920,2645.166504 1085.843018,2646.031006 
	C1071.667480,2647.155273 1057.512207,2648.535400 1043.342896,2649.742676 
	C1034.104858,2650.530029 1024.865967,2651.352539 1015.611938,2651.898438 
	C1001.706299,2652.718994 987.774841,2653.125732 973.876953,2654.048096 
	C957.367615,2655.144043 940.882263,2656.600342 924.386353,2657.898438 
	C924.054321,2657.924805 923.720581,2657.928955 923.387634,2657.943604 
	C907.807495,2658.628906 892.229065,2659.355713 876.646851,2659.989258 
	C858.735229,2660.717285 840.818237,2661.316650 822.907288,2662.059814 
	C808.989929,2662.636719 795.083618,2663.515137 781.162842,2663.963379 
	C756.253662,2664.765381 731.296387,2664.659912 706.431763,2666.147217 
	C637.535522,2670.267822 568.596313,2667.603760 499.693970,2667.464355 
	C480.202362,2667.424805 460.522186,2666.828613 440.954773,2665.912598 
	C419.444061,2664.906250 397.922363,2663.733643 376.477722,2661.822021 
	C352.113678,2659.650146 327.685669,2657.483887 303.552338,2653.639648 
	C280.394592,2649.951172 257.390350,2644.837402 234.696533,2638.904297 
	C224.300247,2636.186279 214.303711,2630.834961 205.030838,2625.190918 
	C192.218033,2617.392334 190.078674,2602.805176 202.234085,2592.879150 
	C208.893188,2587.440918 215.503128,2581.476318 223.118790,2577.770020 
	C240.723969,2569.201172 258.618835,2561.034668 276.950134,2554.188232 
	C323.634247,2536.752197 371.928131,2524.631836 420.306549,2513.027832 
	C446.683319,2506.701172 473.374115,2501.687256 499.900024,2495.973633 
	C503.106750,2495.282715 506.167450,2493.914307 509.750000,2492.248535 
z"/>
<path fill="#074FB6" opacity="1.000000" stroke="none" 
	d="
M1603.151367,720.383789 
	C1603.419922,701.141968 1603.743408,681.900757 1603.927734,662.658081 
	C1603.994507,655.688843 1603.727661,648.716370 1603.522949,639.958130 
	C1602.048218,596.203857 1599.526001,554.332886 1594.360596,512.624390 
	C1587.349854,456.016693 1576.733887,400.177948 1560.005127,345.594177 
	C1546.299438,300.873932 1529.143066,257.629730 1503.847168,218.018341 
	C1488.866211,194.559586 1471.590576,173.045898 1448.737671,156.657593 
	C1409.750122,128.698761 1369.422974,126.984406 1327.939453,150.933624 
	C1308.673218,162.056366 1292.492310,176.874481 1277.802734,193.378342 
	C1252.815918,221.451172 1233.296387,253.180206 1216.350464,286.555939 
	C1186.658203,345.035767 1165.913696,406.784454 1150.027100,470.242279 
	C1141.297363,505.112732 1133.483643,540.194336 1128.940796,575.913818 
	C1122.221558,610.968750 1118.848877,646.434753 1115.822754,683.684326 
	C1115.154785,695.035034 1114.736572,704.668701 1113.964111,714.273865 
	C1112.920654,727.247864 1103.265015,737.277405 1091.288574,738.182373 
	C1077.245850,739.243530 1066.567261,731.650452 1063.587158,717.889099 
	C1062.619995,713.422729 1062.741089,708.662354 1062.807983,704.042847 
	C1062.937500,695.080994 1063.381348,686.123779 1063.695068,677.164612 
	C1065.865601,656.523071 1067.878540,635.863403 1070.259521,615.246155 
	C1071.997192,600.200378 1074.219604,585.210693 1076.170166,569.361816 
	C1078.750366,554.859619 1081.423584,541.198669 1084.017090,527.522583 
	C1101.332642,436.212799 1126.866943,347.534424 1168.727661,264.134735 
	C1189.896362,221.960205 1214.984985,182.389175 1247.711792,148.063416 
	C1270.699463,123.952515 1296.428955,103.534225 1327.667236,91.095451 
	C1371.739380,73.546295 1414.916138,75.717072 1456.712524,98.462753 
	C1489.654419,116.389793 1514.737427,142.877701 1536.250366,173.017349 
	C1566.530273,215.439667 1587.303711,262.568085 1603.849243,311.682098 
	C1622.075073,365.784424 1633.956543,421.365387 1642.295654,477.796600 
	C1650.542358,533.603760 1653.794067,589.767456 1655.830078,646.943604 
	C1655.860962,672.479675 1655.661011,697.135925 1655.085938,723.442749 
	C1654.428467,731.725464 1654.264771,738.365540 1653.829346,744.987671 
	C1653.416260,751.270081 1653.344238,757.668823 1652.024414,763.779297 
	C1648.600586,779.631775 1631.807861,787.745422 1617.099121,780.897095 
	C1606.705200,776.057678 1601.675537,767.520142 1601.845337,756.198608 
	C1602.024536,744.256470 1602.695312,732.321777 1603.151367,720.383789 
z"/>
<path fill="#074FB6" opacity="1.000000" stroke="none" 
	d="
M874.927124,539.065186 
	C860.461365,538.264465 846.221741,536.583679 831.984314,534.883850 
	C829.716553,534.613098 827.459045,534.256409 824.319580,533.826721 
	C832.745605,438.478333 851.616516,345.519470 889.751160,257.217285 
	C908.351929,214.146591 931.674988,173.979568 964.003174,139.534576 
	C979.620728,122.894432 997.181519,108.700714 1017.336487,97.913216 
	C1053.028198,78.810020 1090.422607,74.399330 1129.432739,85.662453 
	C1167.021240,96.515167 1197.143555,118.893364 1223.863281,146.640778 
	C1212.959229,160.745239 1202.416382,174.382507 1191.417480,188.609619 
	C1188.337646,185.642471 1185.542969,182.921738 1182.717896,180.232941 
	C1163.980713,162.399887 1143.748169,146.972061 1118.550171,139.150772 
	C1090.962036,130.587570 1064.597534,133.561234 1039.389404,147.208481 
	C1012.029968,162.020538 991.792053,184.410019 974.492554,209.673676 
	C949.648865,245.954514 932.310181,285.886597 918.417480,327.386810 
	C899.657654,383.426270 887.436523,440.964966 879.790649,499.509979 
	C878.109619,512.381897 876.692566,525.288330 874.927124,539.065186 
z"/>
<path fill="#FEFEFF" opacity="1.000000" stroke="none" 
	d="
M1129.861206,575.951904 
	C1133.483643,540.194336 1141.297363,505.112732 1150.027100,470.242279 
	C1165.913696,406.784454 1186.658203,345.035767 1216.350464,286.555939 
	C1233.296387,253.180206 1252.815918,221.451172 1277.802734,193.378342 
	C1292.492310,176.874481 1308.673218,162.056366 1327.939453,150.933624 
	C1369.422974,126.984406 1409.750122,128.698761 1448.737671,156.657593 
	C1471.590576,173.045898 1488.866211,194.559586 1503.847168,218.018341 
	C1529.143066,257.629730 1546.299438,300.873932 1560.005127,345.594177 
	C1576.733887,400.177948 1587.349854,456.016693 1594.360596,512.624390 
	C1599.526001,554.332886 1602.048218,596.203857 1603.332520,639.033569 
	C1585.451294,637.662231 1567.653564,635.550781 1549.892456,633.167725 
	C1517.645874,628.841003 1485.418091,624.373779 1453.188232,619.922852 
	C1436.424072,617.607788 1419.672363,615.202148 1402.229004,611.571289 
	C1399.794312,598.112610 1398.079346,585.914978 1396.291870,573.727966 
	C1386.708130,508.392883 1372.257080,444.172241 1351.861206,381.341919 
	C1334.856812,328.959198 1313.795532,278.320160 1286.118652,230.581696 
	C1284.077271,227.060608 1281.815186,223.667496 1278.692871,218.675232 
	C1268.563721,234.296661 1259.655396,248.331345 1250.403687,262.135834 
	C1247.359131,266.678558 1247.978271,270.298920 1250.301636,274.952240 
	C1259.071899,292.517151 1267.969360,310.061523 1275.710083,328.089752 
	C1303.536987,392.899139 1322.387451,460.471130 1335.789185,529.579895 
	C1340.663818,554.716919 1344.034058,580.145630 1348.090820,605.441223 
	C1306.939697,599.842834 1265.790527,594.230530 1224.636963,588.650513 
	C1193.354736,584.409119 1162.066895,580.208679 1129.861206,575.951904 
z"/>
<path fill="#074FB6" opacity="1.000000" stroke="none" 
	d="
M1348.957764,605.543335 
	C1344.034058,580.145630 1340.663818,554.716919 1335.789185,529.579895 
	C1322.387451,460.471130 1303.536987,392.899139 1275.710083,328.089752 
	C1267.969360,310.061523 1259.071899,292.517151 1250.301636,274.952240 
	C1247.978271,270.298920 1247.359131,266.678558 1250.403687,262.135834 
	C1259.655396,248.331345 1268.563721,234.296661 1278.692871,218.675232 
	C1281.815186,223.667496 1284.077271,227.060608 1286.118652,230.581696 
	C1313.795532,278.320160 1334.856812,328.959198 1351.861206,381.341919 
	C1372.257080,444.172241 1386.708130,508.392883 1396.291870,573.727966 
	C1398.079346,585.914978 1399.794312,598.112610 1401.540771,611.128784 
	C1388.849976,610.444458 1376.159302,608.950317 1363.473022,607.421509 
	C1358.918335,606.872559 1354.373901,606.239929 1348.957764,605.543335 
z"/>
<path fill="#F6FCFE" opacity="1.000000" stroke="none" 
	d="
M1063.159180,677.423950 
	C1063.381348,686.123779 1062.937500,695.080994 1062.807983,704.042847 
	C1062.741089,708.662354 1062.619995,713.422729 1063.587158,717.889099 
	C1066.567261,731.650452 1077.245850,739.243530 1091.288574,738.182373 
	C1103.265015,737.277405 1112.920654,727.247864 1113.964111,714.273865 
	C1114.736572,704.668701 1115.154785,695.035034 1115.884766,684.561401 
	C1135.067871,699.609009 1137.772217,745.630432 1105.337769,763.776978 
	C1090.956543,771.823181 1072.683350,768.837097 1060.156494,756.746277 
	C1037.216919,734.605469 1039.929565,695.130981 1063.159180,677.423950 
z"/>
<path fill="#F6FCFE" opacity="1.000000" stroke="none" 
	d="
M1602.624023,720.688721 
	C1602.695312,732.321777 1602.024536,744.256470 1601.845337,756.198608 
	C1601.675537,767.520142 1606.705200,776.057678 1617.099121,780.897095 
	C1631.807861,787.745422 1648.600586,779.631775 1652.024414,763.779297 
	C1653.344238,757.668823 1653.416260,751.270081 1653.829346,744.987671 
	C1654.264771,738.365540 1654.428467,731.725464 1655.120361,724.355591 
	C1673.777344,740.380920 1675.557983,774.575623 1659.083252,794.795532 
	C1644.464600,812.737305 1619.991211,815.420959 1602.486938,800.286194 
	C1577.141357,778.371826 1580.663940,737.078979 1602.624023,720.688721 
z"/>
</svg>